<?xml version="1.0" encoding="UTF-8" standalone="no"?>
<!-- Created with Inkscape (http://www.inkscape.org/) -->

<svg
   xmlns:dc="http://purl.org/dc/elements/1.1/"
   xmlns:cc="http://creativecommons.org/ns#"
   xmlns:rdf="http://www.w3.org/1999/02/22-rdf-syntax-ns#"
   xmlns:svg="http://www.w3.org/2000/svg"
   xmlns="http://www.w3.org/2000/svg"
   xmlns:sodipodi="http://sodipodi.sourceforge.net/DTD/sodipodi-0.dtd"
   xmlns:inkscape="http://www.inkscape.org/namespaces/inkscape"
   width="546.42194"
   height="546.42188"
   id="svg4510"
   version="1.1"
   inkscape:version="0.47 r22583"
   sodipodi:docname="Nouveau document 8">
  <defs
     id="defs4512">
    <inkscape:perspective
       sodipodi:type="inkscape:persp3d"
       inkscape:vp_x="0 : 526.18109 : 1"
       inkscape:vp_y="0 : 1000 : 0"
       inkscape:vp_z="744.09448 : 526.18109 : 1"
       inkscape:persp3d-origin="372.04724 : 350.78739 : 1"
       id="perspective4518" />
    <inkscape:perspective
       id="perspective4474"
       inkscape:persp3d-origin="0.5 : 0.33333333 : 1"
       inkscape:vp_z="1 : 0.5 : 1"
       inkscape:vp_y="0 : 1000 : 0"
       inkscape:vp_x="0 : 0.5 : 1"
       sodipodi:type="inkscape:persp3d" />
    <filter
       color-interpolation-filters="sRGB"
       id="filter3798"
       inkscape:label="Drop shadow"
       width="1.5"
       height="1.5"
       x="-0.25"
       y="-0.25">
      <feGaussianBlur
         id="feGaussianBlur3800"
         in="SourceAlpha"
         stdDeviation="2,000000"
         result="blur" />
      <feColorMatrix
         id="feColorMatrix3802"
         result="bluralpha"
         type="matrix"
         values="1 0 0 0 0 0 1 0 0 0 0 0 1 0 0 0 0 0 0,300000 0 " />
      <feOffset
         id="feOffset3804"
         in="bluralpha"
         dx="3,400000"
         dy="3,400000"
         result="offsetBlur" />
      <feMerge
         id="feMerge3806">
        <feMergeNode
           id="feMergeNode3808"
           in="offsetBlur" />
        <feMergeNode
           id="feMergeNode3810"
           in="SourceGraphic" />
      </feMerge>
    </filter>
    <filter
       color-interpolation-filters="sRGB"
       id="filter3812"
       inkscape:label="Drop shadow"
       width="1.5"
       height="1.5"
       x="-0.25"
       y="-0.25">
      <feGaussianBlur
         id="feGaussianBlur3814"
         in="SourceAlpha"
         stdDeviation="2,000000"
         result="blur" />
      <feColorMatrix
         id="feColorMatrix3816"
         result="bluralpha"
         type="matrix"
         values="1 0 0 0 0 0 1 0 0 0 0 0 1 0 0 0 0 0 0,300000 0 " />
      <feOffset
         id="feOffset3818"
         in="bluralpha"
         dx="3,400000"
         dy="3,400000"
         result="offsetBlur" />
      <feMerge
         id="feMerge3820">
        <feMergeNode
           id="feMergeNode3822"
           in="offsetBlur" />
        <feMergeNode
           id="feMergeNode3824"
           in="SourceGraphic" />
      </feMerge>
    </filter>
    <filter
       color-interpolation-filters="sRGB"
       id="filter3826"
       inkscape:label="Drop shadow"
       width="1.5"
       height="1.5"
       x="-0.25"
       y="-0.25">
      <feGaussianBlur
         id="feGaussianBlur3828"
         in="SourceAlpha"
         stdDeviation="2,000000"
         result="blur" />
      <feColorMatrix
         id="feColorMatrix3830"
         result="bluralpha"
         type="matrix"
         values="1 0 0 0 0 0 1 0 0 0 0 0 1 0 0 0 0 0 0,300000 0 " />
      <feOffset
         id="feOffset3832"
         in="bluralpha"
         dx="3,400000"
         dy="3,400000"
         result="offsetBlur" />
      <feMerge
         id="feMerge3834">
        <feMergeNode
           id="feMergeNode3836"
           in="offsetBlur" />
        <feMergeNode
           id="feMergeNode3838"
           in="SourceGraphic" />
      </feMerge>
    </filter>
    <filter
       color-interpolation-filters="sRGB"
       id="filter3840"
       inkscape:label="Drop shadow"
       width="1.5"
       height="1.5"
       x="-0.25"
       y="-0.25">
      <feGaussianBlur
         id="feGaussianBlur3842"
         in="SourceAlpha"
         stdDeviation="2,000000"
         result="blur" />
      <feColorMatrix
         id="feColorMatrix3844"
         result="bluralpha"
         type="matrix"
         values="1 0 0 0 0 0 1 0 0 0 0 0 1 0 0 0 0 0 0,300000 0 " />
      <feOffset
         id="feOffset3846"
         in="bluralpha"
         dx="3,400000"
         dy="3,400000"
         result="offsetBlur" />
      <feMerge
         id="feMerge3848">
        <feMergeNode
           id="feMergeNode3850"
           in="offsetBlur" />
        <feMergeNode
           id="feMergeNode3852"
           in="SourceGraphic" />
      </feMerge>
    </filter>
  </defs>
  <sodipodi:namedview
     id="base"
     pagecolor="#ffffff"
     bordercolor="#666666"
     borderopacity="1.0"
     inkscape:pageopacity="0.0"
     inkscape:pageshadow="2"
     inkscape:zoom="0.7"
     inkscape:cx="606.94273"
     inkscape:cy="223.37706"
     inkscape:document-units="px"
     inkscape:current-layer="layer1"
     showgrid="false"
     inkscape:window-width="1366"
     inkscape:window-height="691"
     inkscape:window-x="0"
     inkscape:window-y="25"
     inkscape:window-maximized="1" />
  <metadata
     id="metadata4515">
    <rdf:RDF>
      <cc:Work
         rdf:about="">
        <dc:format>image/svg+xml</dc:format>
        <dc:type
           rdf:resource="http://purl.org/dc/dcmitype/StillImage" />
        <dc:title></dc:title>
      </cc:Work>
    </rdf:RDF>
  </metadata>
  <g
     inkscape:label="Calque 1"
     inkscape:groupmode="layer"
     id="layer1"
     transform="translate(-92.503315,-44.865527)">
    <path
       style="fill:#9a9a9a;fill-opacity:1;stroke:none;filter:url(#filter3840)"
       d="m 365.72989,135.93584 c -100.59473,0 -182.15625,81.56153 -182.15625,182.15625 0,47.757 18.39707,91.2038 48.46875,123.6875 0.62108,-5.7287 2.55352,-18.7259 5.28125,-42.0937 19.26061,-165.00132 34.63301,32.061 118.59375,-109.12505 64.19585,-107.94996 -73.3847,-199.728607 20.84375,-125.28125 123.2399,97.36855 -43.81637,16.72497 26.6562,162.75 53.88299,111.6498 199.29879,28.0385 90.3438,79.75 -142.50055,67.6327 9.2146,-48.8173 -145.21875,-53.6563 -78.97479,-2.4745 -108.63492,75.0715 -115.21875,89.0313 33.2054,35.1401 80.24341,57.0625 132.40625,57.0625 100.59474,0 182.12505,-81.5303 182.12505,-182.125 0,-100.59472 -81.5303,-182.15625 -182.12505,-182.15625 z"
       id="path3764-4" />
    <path
       style="fill:#fef176;fill-opacity:1;stroke:none;filter:url(#filter3826)"
       d="m 225.22849,432.49559 c -41.77638,-51.7135 -52.19155,-120.99465 -27.42335,-182.41875 19.22348,-47.67345 59.82582,-86.25995 108.52704,-103.13885 10.96846,-3.80146 34.70831,-9.32645 35.51767,-8.26605 0.2119,0.27766 2.67178,4.36199 5.46636,9.07627 12.99158,21.91602 20.7799,41.7335 24.1,61.32265 2.24968,13.27365 0.8587,37.35114 -2.92119,50.56449 -6.16747,21.55978 -22.86094,48.95599 -40.68754,66.77374 -20.78335,20.773 -31.73509,22.6005 -54.9946,9.1766 -16.01617,-9.2435 -18.74202,-9.0296 -23.69454,1.8585 -4.53681,9.9743 -8.32055,29.6139 -12.9942,67.4469 -2.13537,17.2857 -4.33789,31.9577 -4.89449,32.6045 -0.5566,0.6467 -3.25712,-1.6033 -6.00116,-5 l 0,0 z"
       id="path3792" />
    <path
       style="fill:#94bd5e;fill-opacity:1;stroke:none;filter:url(#filter3812)"
       d="m 492.71233,388.96559 c -35.3368,-5.3072 -56.00379,-16.1373 -74.2831,-38.9266 -13.6614,-17.032 -28.408,-51.33346 -31.43974,-73.13066 -3.11166,-22.37201 3.74264,-36.50751 23.08014,-47.59748 8.8773,-5.09113 14.0712,-10.49606 14.0712,-14.64297 0,-4.80741 -5.6685,-13.20739 -15.3043,-22.67883 -7.3739,-7.24813 -43.87449,-37.74018 -57.90995,-48.37712 -2.94642,-2.23298 -5.35713,-4.70875 -5.35713,-5.5017 0,-0.94271 8.28238,-1.17945 23.92857,-0.68396 19.16549,0.60693 26.77222,1.4819 38.21432,4.39566 35.4973,9.0395 64.3429,25.66382 88.6078,51.06656 47.1743,49.38658 62.6791,118.91219 40.9065,183.4312 l -3.8567,11.4285 -8.5431,0.9164 c -9.2912,0.9966 -26.4142,1.1571 -32.1145,0.301 z"
       id="path3794" />
    <path
       style="fill:#99ccff;fill-opacity:1;stroke:none;filter:url(#filter3798)"
       d="m 348.26596,498.51359 c -40.77435,-4.1447 -76.44846,-20.4993 -106.63935,-48.8883 l -7.51426,-7.0658 7.38151,-14.3703 c 18.80281,-36.6052 43.85995,-59.8904 74.48085,-69.2138 16.05679,-4.8889 49.03548,-4.6957 69.583,0.4076 19.73992,4.9028 33.79242,15.425 37.29692,27.9271 0.9485,3.3838 1.87291,12.3223 2.0543,19.8632 0.1814,7.541 0.78061,15.1314 1.3317,16.8676 1.4189,4.4705 5.9672,5.7208 15.4194,4.2385 11.0528,-1.7332 19.2884,-4.9024 55.684,-21.4281 17.0831,-7.7567 31.3867,-14.1031 31.7857,-14.1031 1.9617,0 0.125,4.6606 -5.923,15.0299 -26.6825,45.7468 -70.8481,77.5994 -121.5892,87.6911 -16.66421,3.3143 -38.46072,4.558 -53.35158,3.0444 l 0,0 z"
       id="path3796" />
  </g>
</svg>
