<?xml version="1.0" encoding="UTF-8" standalone="no"?>
<!-- Created with Inkscape (http://www.inkscape.org/) -->

<svg
   xmlns:dc="http://purl.org/dc/elements/1.1/"
   xmlns:cc="http://creativecommons.org/ns#"
   xmlns:rdf="http://www.w3.org/1999/02/22-rdf-syntax-ns#"
   xmlns:svg="http://www.w3.org/2000/svg"
   xmlns="http://www.w3.org/2000/svg"
   xmlns:sodipodi="http://sodipodi.sourceforge.net/DTD/sodipodi-0.dtd"
   xmlns:inkscape="http://www.inkscape.org/namespaces/inkscape"
   width="210mm"
   height="297mm"
   id="svg2"
   version="1.1"
   inkscape:version="0.47 r22583"
   sodipodi:docname="logo.svg">
  <defs
     id="defs4">
    <inkscape:path-effect
       fuse_tolerance="0"
       vertical_pattern="false"
       prop_units="false"
       tang_offset="0"
       normal_offset="0"
       spacing="0"
       scale_y_rel="false"
       prop_scale="1"
       copytype="single_stretched"
       pattern="m 81.086271,-127.27922 0,10 10,-5 z"
       is_visible="true"
       id="path-effect2866"
       effect="skeletal" />
    <inkscape:path-effect
       is_visible="true"
       id="path-effect2864"
       effect="spiro" />
    <inkscape:path-effect
       fuse_tolerance="0"
       vertical_pattern="false"
       prop_units="false"
       tang_offset="0"
       normal_offset="0"
       spacing="0"
       scale_y_rel="false"
       prop_scale="1"
       copytype="single_stretched"
       pattern="m 172.73608,2.0203056 0,10.0000004 10,-5.0000004 z"
       is_visible="true"
       id="path-effect2860"
       effect="skeletal" />
    <inkscape:path-effect
       is_visible="true"
       id="path-effect2858"
       effect="spiro" />
    <inkscape:path-effect
       effect="skeletal"
       id="path-effect2852"
       is_visible="true"
       pattern="m -89.923882,-127.27922 0,10 10,-5 z"
       copytype="single_stretched"
       prop_scale="1"
       scale_y_rel="false"
       spacing="0"
       normal_offset="0"
       tang_offset="0"
       prop_units="false"
       vertical_pattern="false"
       fuse_tolerance="0" />
    <inkscape:path-effect
       effect="spiro"
       id="path-effect2850"
       is_visible="true" />
    <inkscape:path-effect
       effect="skeletal"
       id="path-effect2846"
       is_visible="true"
       pattern="M 0,0 0,10 10,5 z"
       copytype="single_stretched"
       prop_scale="1"
       scale_y_rel="false"
       spacing="0"
       normal_offset="0"
       tang_offset="0"
       prop_units="false"
       vertical_pattern="false"
       fuse_tolerance="0" />
    <inkscape:path-effect
       effect="spiro"
       id="path-effect2844"
       is_visible="true" />
    <inkscape:path-effect
       effect="skeletal"
       id="path-effect2840"
       is_visible="true"
       pattern="M 0,0 0,10 10,5 z"
       copytype="single_stretched"
       prop_scale="1"
       scale_y_rel="false"
       spacing="0"
       normal_offset="0"
       tang_offset="0"
       prop_units="false"
       vertical_pattern="false"
       fuse_tolerance="0" />
    <inkscape:path-effect
       effect="spiro"
       id="path-effect2838"
       is_visible="true" />
    <inkscape:path-effect
       effect="skeletal"
       id="path-effect2832"
       is_visible="true"
       pattern="M 0,5 C 0,2.24 2.24,0 5,0 7.76,0 10,2.24 10,5 10,7.76 7.76,10 5,10 2.24,10 0,7.76 0,5 z"
       copytype="single_stretched"
       prop_scale="1"
       scale_y_rel="false"
       spacing="0"
       normal_offset="0"
       tang_offset="0"
       prop_units="false"
       vertical_pattern="false"
       fuse_tolerance="0" />
    <inkscape:path-effect
       effect="skeletal"
       id="path-effect2828"
       is_visible="true"
       pattern="M 0,0 0,10 10,5 z"
       copytype="single_stretched"
       prop_scale="1"
       scale_y_rel="false"
       spacing="0"
       normal_offset="0"
       tang_offset="0"
       prop_units="false"
       vertical_pattern="false"
       fuse_tolerance="0" />
    <inkscape:path-effect
       effect="spiro"
       id="path-effect2826"
       is_visible="true" />
    <inkscape:path-effect
       effect="skeletal"
       id="path-effect2822"
       is_visible="true"
       pattern="M 0,0 0,10 10,5 z"
       copytype="single_stretched"
       prop_scale="1"
       scale_y_rel="false"
       spacing="0"
       normal_offset="0"
       tang_offset="0"
       prop_units="false"
       vertical_pattern="false"
       fuse_tolerance="0" />
    <inkscape:path-effect
       effect="spiro"
       id="path-effect2820"
       is_visible="true" />
    <inkscape:perspective
       sodipodi:type="inkscape:persp3d"
       inkscape:vp_x="0 : 526.18109 : 1"
       inkscape:vp_y="0 : 1000 : 0"
       inkscape:vp_z="744.09448 : 526.18109 : 1"
       inkscape:persp3d-origin="372.04724 : 350.78739 : 1"
       id="perspective10" />
    <inkscape:perspective
       id="perspective3774"
       inkscape:persp3d-origin="0.5 : 0.33333333 : 1"
       inkscape:vp_z="1 : 0.5 : 1"
       inkscape:vp_y="0 : 1000 : 0"
       inkscape:vp_x="0 : 0.5 : 1"
       sodipodi:type="inkscape:persp3d" />
    <filter
       id="filter3798"
       inkscape:label="Drop shadow"
       width="1.5"
       height="1.5"
       x="-.25"
       y="-.25">
      <feGaussianBlur
         id="feGaussianBlur3800"
         in="SourceAlpha"
         stdDeviation="2,000000"
         result="blur" />
      <feColorMatrix
         id="feColorMatrix3802"
         result="bluralpha"
         type="matrix"
         values="1 0 0 0 0 0 1 0 0 0 0 0 1 0 0 0 0 0 0,300000 0 " />
      <feOffset
         id="feOffset3804"
         in="bluralpha"
         dx="3,400000"
         dy="3,400000"
         result="offsetBlur" />
      <feMerge
         id="feMerge3806">
        <feMergeNode
           id="feMergeNode3808"
           in="offsetBlur" />
        <feMergeNode
           id="feMergeNode3810"
           in="SourceGraphic" />
      </feMerge>
    </filter>
    <filter
       id="filter3812"
       inkscape:label="Drop shadow"
       width="1.5"
       height="1.5"
       x="-.25"
       y="-.25">
      <feGaussianBlur
         id="feGaussianBlur3814"
         in="SourceAlpha"
         stdDeviation="2,000000"
         result="blur" />
      <feColorMatrix
         id="feColorMatrix3816"
         result="bluralpha"
         type="matrix"
         values="1 0 0 0 0 0 1 0 0 0 0 0 1 0 0 0 0 0 0,300000 0 " />
      <feOffset
         id="feOffset3818"
         in="bluralpha"
         dx="3,400000"
         dy="3,400000"
         result="offsetBlur" />
      <feMerge
         id="feMerge3820">
        <feMergeNode
           id="feMergeNode3822"
           in="offsetBlur" />
        <feMergeNode
           id="feMergeNode3824"
           in="SourceGraphic" />
      </feMerge>
    </filter>
    <filter
       id="filter3826"
       inkscape:label="Drop shadow"
       width="1.5"
       height="1.5"
       x="-.25"
       y="-.25">
      <feGaussianBlur
         id="feGaussianBlur3828"
         in="SourceAlpha"
         stdDeviation="2,000000"
         result="blur" />
      <feColorMatrix
         id="feColorMatrix3830"
         result="bluralpha"
         type="matrix"
         values="1 0 0 0 0 0 1 0 0 0 0 0 1 0 0 0 0 0 0,300000 0 " />
      <feOffset
         id="feOffset3832"
         in="bluralpha"
         dx="3,400000"
         dy="3,400000"
         result="offsetBlur" />
      <feMerge
         id="feMerge3834">
        <feMergeNode
           id="feMergeNode3836"
           in="offsetBlur" />
        <feMergeNode
           id="feMergeNode3838"
           in="SourceGraphic" />
      </feMerge>
    </filter>
    <filter
       id="filter3840"
       inkscape:label="Drop shadow"
       width="1.5"
       height="1.5"
       x="-.25"
       y="-.25">
      <feGaussianBlur
         id="feGaussianBlur3842"
         in="SourceAlpha"
         stdDeviation="2,000000"
         result="blur" />
      <feColorMatrix
         id="feColorMatrix3844"
         result="bluralpha"
         type="matrix"
         values="1 0 0 0 0 0 1 0 0 0 0 0 1 0 0 0 0 0 0,300000 0 " />
      <feOffset
         id="feOffset3846"
         in="bluralpha"
         dx="3,400000"
         dy="3,400000"
         result="offsetBlur" />
      <feMerge
         id="feMerge3848">
        <feMergeNode
           id="feMergeNode3850"
           in="offsetBlur" />
        <feMergeNode
           id="feMergeNode3852"
           in="SourceGraphic" />
      </feMerge>
    </filter>
    <inkscape:perspective
       id="perspective3973"
       inkscape:persp3d-origin="0.5 : 0.33333333 : 1"
       inkscape:vp_z="1 : 0.5 : 1"
       inkscape:vp_y="0 : 1000 : 0"
       inkscape:vp_x="0 : 0.5 : 1"
       sodipodi:type="inkscape:persp3d" />
    <filter
       color-interpolation-filters="sRGB"
       id="filter3798-5"
       inkscape:label="Drop shadow"
       width="1.5"
       height="1.5"
       x="-0.25"
       y="-0.25">
      <feGaussianBlur
         id="feGaussianBlur3800-1"
         in="SourceAlpha"
         stdDeviation="2,000000"
         result="blur" />
      <feColorMatrix
         id="feColorMatrix3802-1"
         result="bluralpha"
         type="matrix"
         values="1 0 0 0 0 0 1 0 0 0 0 0 1 0 0 0 0 0 0,300000 0 " />
      <feOffset
         id="feOffset3804-0"
         in="bluralpha"
         dx="3,400000"
         dy="3,400000"
         result="offsetBlur" />
      <feMerge
         id="feMerge3806-8">
        <feMergeNode
           id="feMergeNode3808-5"
           in="offsetBlur" />
        <feMergeNode
           id="feMergeNode3810-0"
           in="SourceGraphic" />
      </feMerge>
    </filter>
    <filter
       color-interpolation-filters="sRGB"
       id="filter3812-6"
       inkscape:label="Drop shadow"
       width="1.5"
       height="1.5"
       x="-0.25"
       y="-0.25">
      <feGaussianBlur
         id="feGaussianBlur3814-4"
         in="SourceAlpha"
         stdDeviation="2,000000"
         result="blur" />
      <feColorMatrix
         id="feColorMatrix3816-6"
         result="bluralpha"
         type="matrix"
         values="1 0 0 0 0 0 1 0 0 0 0 0 1 0 0 0 0 0 0,300000 0 " />
      <feOffset
         id="feOffset3818-2"
         in="bluralpha"
         dx="3,400000"
         dy="3,400000"
         result="offsetBlur" />
      <feMerge
         id="feMerge3820-5">
        <feMergeNode
           id="feMergeNode3822-8"
           in="offsetBlur" />
        <feMergeNode
           id="feMergeNode3824-6"
           in="SourceGraphic" />
      </feMerge>
    </filter>
    <filter
       color-interpolation-filters="sRGB"
       id="filter3826-2"
       inkscape:label="Drop shadow"
       width="1.5"
       height="1.5"
       x="-0.25"
       y="-0.25">
      <feGaussianBlur
         id="feGaussianBlur3828-8"
         in="SourceAlpha"
         stdDeviation="2,000000"
         result="blur" />
      <feColorMatrix
         id="feColorMatrix3830-4"
         result="bluralpha"
         type="matrix"
         values="1 0 0 0 0 0 1 0 0 0 0 0 1 0 0 0 0 0 0,300000 0 " />
      <feOffset
         id="feOffset3832-7"
         in="bluralpha"
         dx="3,400000"
         dy="3,400000"
         result="offsetBlur" />
      <feMerge
         id="feMerge3834-2">
        <feMergeNode
           id="feMergeNode3836-4"
           in="offsetBlur" />
        <feMergeNode
           id="feMergeNode3838-0"
           in="SourceGraphic" />
      </feMerge>
    </filter>
    <filter
       color-interpolation-filters="sRGB"
       id="filter3840-6"
       inkscape:label="Drop shadow"
       width="1.5"
       height="1.5"
       x="-0.25"
       y="-0.25">
      <feGaussianBlur
         id="feGaussianBlur3842-2"
         in="SourceAlpha"
         stdDeviation="2,000000"
         result="blur" />
      <feColorMatrix
         id="feColorMatrix3844-9"
         result="bluralpha"
         type="matrix"
         values="1 0 0 0 0 0 1 0 0 0 0 0 1 0 0 0 0 0 0,300000 0 " />
      <feOffset
         id="feOffset3846-9"
         in="bluralpha"
         dx="3,400000"
         dy="3,400000"
         result="offsetBlur" />
      <feMerge
         id="feMerge3848-0">
        <feMergeNode
           id="feMergeNode3850-8"
           in="offsetBlur" />
        <feMergeNode
           id="feMergeNode3852-1"
           in="SourceGraphic" />
      </feMerge>
    </filter>
  </defs>
  <sodipodi:namedview
     id="base"
     pagecolor="#ffffff"
     bordercolor="#666666"
     borderopacity="1.0"
     inkscape:pageopacity="0.0"
     inkscape:pageshadow="2"
     inkscape:zoom="0.49497475"
     inkscape:cx="1366.7812"
     inkscape:cy="299.4922"
     inkscape:document-units="px"
     inkscape:current-layer="layer1"
     showgrid="false"
     inkscape:window-width="1366"
     inkscape:window-height="691"
     inkscape:window-x="0"
     inkscape:window-y="25"
     inkscape:window-maximized="1" />
  <metadata
     id="metadata7">
    <rdf:RDF>
      <cc:Work
         rdf:about="">
        <dc:format>image/svg+xml</dc:format>
        <dc:type
           rdf:resource="http://purl.org/dc/dcmitype/StillImage" />
        <dc:title></dc:title>
      </cc:Work>
    </rdf:RDF>
  </metadata>
  <g
     inkscape:label="Calque 1"
     inkscape:groupmode="layer"
     id="layer1">
    <path
       d="m 328.43578,442.79777 -9.54618,-2.97832 c -10.94186,35.81464 -7.67947,75.55053 8.83464,108.9781 17.46227,35.14819 48.33322,62.14502 83.12036,79.19374 34.75576,17.04707 73.14171,24.92667 111.31833,28.18349 38.0474,2.48177 76.55044,0.6636 114.48132,-5.41182 -0.9514,0.91587 -1.90684,1.84026 -2.86632,2.77317 0,1e-5 -10e-6,1e-5 -10e-6,1e-5 -28.91817,-48.5049 -62.14743,-94.51074 -99.21194,-137.38589 -10e-6,-10e-6 -10e-6,-2e-5 -2e-5,-3e-5 -16.06627,-18.41649 -32.92252,-36.36886 -52.24188,-51.44474 -10e-6,0 -10e-6,-1e-5 -2e-5,-1e-5 -19.3189,-15.07971 -41.28807,-27.23348 -65.128,-32.90202 -30.70912,-7.29414 -63.92305,-3.26485 -91.89788,11.06311 28.1378,-14.0052 61.2764,-17.59393 91.64112,-10.00921 23.58213,5.88446 45.19782,18.19937 64.19085,33.36067 18.99432,15.16652 35.52218,33.19795 51.33895,51.74107 10e-6,1e-5 10e-6,1e-5 2e-5,2e-5 37.22069,43.23808 71.07822,89.55369 101.11884,138.29919 1.5229,-2.10967 3.04983,-4.22786 4.58081,-6.35456 -38.1536,4.64673 -76.97865,4.70622 -115.44646,0.17124 -2e-5,0 -3e-5,0 -4e-5,0 -37.65201,-3.69699 -75.16929,-11.80757 -108.55782,-28.74124 -33.34164,-16.92429 -62.67402,-43.0893 -78.57229,-76.37187 -15.15069,-31.5248 -17.73581,-68.99829 -7.15638,-102.1641 z"
       id="path2862"
       inkscape:original-d="m 323.66269,441.30861 c -12.91744,35.14686 -4.41472,71.14922 7.99551,105.5711 31.6657,87.8302 103.6335,108.36135 190.78442,106.24517 38.45345,-0.93371 77.59334,0.99763 114.96389,-2.79153 l -3.72357,4.56387 C 562.00052,677.92909 566.41489,549.92097 533.51755,517.05468 500.32715,483.8956 457.77984,396.14971 417.06768,432.3304 c -13.82643,12.28748 -79.26618,-2.58948 -91.7695,10.53616"
       inkscape:path-effect="#path-effect2864;#path-effect2866"
       style="fill:#ffdd55;fill-rule:evenodd;stroke:none;stroke-opacity:1" />
    <path
       style="fill:#2c89a0;fill-rule:evenodd;stroke:none;stroke-opacity:1"
       inkscape:path-effect="#path-effect2850;#path-effect2852"
       inkscape:original-d="m 452.00845,441.30861 c 12.91744,35.14686 4.41472,71.14922 -7.99551,105.5711 -31.6657,87.8302 -103.6335,108.36135 -190.78442,106.24517 -38.45345,-0.93371 -77.59334,0.99763 -114.96389,-2.79153 l 3.72357,4.56387 c 71.68242,23.03187 67.26805,-104.97625 100.16539,-137.84254 33.1904,-33.15908 75.73771,-120.90497 116.44987,-84.72428 13.82643,12.28748 79.26618,-2.58948 91.7695,10.53616"
       id="path2848"
       d="m 456.78154,439.81945 -9.54618,2.97832 c 10.57943,33.16581 7.99431,70.6393 -7.15638,102.1641 -15.89827,33.28257 -45.23065,59.44758 -78.57229,76.37187 -33.38854,16.93368 -70.90584,25.04426 -108.55786,28.74124 -38.46781,4.53498 -77.29286,4.47549 -115.44646,-0.17124 1.53098,2.1267 3.05791,4.24489 4.58081,6.35456 30.04062,-48.7455 63.89815,-95.06111 101.11884,-138.29919 1e-5,-10e-6 2e-5,-2e-5 3e-5,-4e-5 15.81677,-18.5431 32.34462,-36.57452 51.33892,-51.74104 10e-6,0 10e-6,-10e-6 2e-5,-10e-6 18.99303,-15.1613 40.60872,-27.47621 64.19085,-33.36067 30.36472,-7.58472 63.50332,-3.99599 91.64112,10.00921 -27.97483,-14.32796 -61.18876,-18.35725 -91.89788,-11.06311 -23.83993,5.66854 -45.8091,17.82231 -65.128,32.90202 -19.31937,15.07588 -36.17562,33.02826 -52.2419,51.44475 -1e-5,10e-6 -1e-5,2e-5 -2e-5,3e-5 -37.06451,42.87515 -70.29377,88.88099 -99.21194,137.38589 -0.95948,-0.93291 -1.91493,-1.8573 -2.86633,-2.77318 37.93088,6.07542 76.43392,7.89359 114.48132,5.41182 1e-5,0 3e-5,0 4e-5,-1e-5 38.17661,-3.25681 76.56254,-11.13641 111.31829,-28.18348 34.78714,-17.04872 65.65809,-44.04555 83.12036,-79.19374 16.51411,-33.42757 19.7765,-73.16346 8.83464,-108.9781 z" />
    <path
       sodipodi:type="star"
       style="fill:#b4dbdb;fill-opacity:0.75396824;stroke:none"
       id="path3643"
       sodipodi:sides="3"
       sodipodi:cx="86.873116"
       sodipodi:cy="342.22495"
       sodipodi:r1="106.87586"
       sodipodi:r2="24.790495"
       sodipodi:arg1="0.63783009"
       sodipodi:arg2="2.2823867"
       inkscape:flatsided="false"
       inkscape:rounded="1"
       inkscape:randomized="0"
       d="M 172.73609,405.86456 C 67.454571,442.51594 181.43797,373.69064 70.683955,360.99939 -13.99784,351.29574 -27.151689,468.48928 -11.171891,384.76465 9.7278425,275.2625 12.340593,408.38767 78.708551,318.8175 129.45306,250.33274 34.537397,180.3444 99.055152,236.04563 c 84.381778,72.85077 -32.214373,8.5509 12.171688,110.81232 33.93729,78.18841 142.0068,30.98321 61.50925,59.00661 z"
       transform="matrix(1.6946498,-0.12488181,0.10811102,1.4670697,814.21237,-193.25313)" />
    <path
       d="m 396.86418,608.00648 3.10246,-9.50656 c -33.16256,-10.58962 -62.21009,-34.40529 -79.12952,-65.01721 -17.91911,-32.23957 -22.25421,-71.30622 -16.7345,-108.28769 5.53923,-37.02513 20.66206,-72.30442 39.46052,-105.1367 1e-5,-2e-5 2e-5,-3e-5 2e-5,-4e-5 18.588,-33.98272 41.12796,-65.59503 67.01807,-94.00262 -2.62038,0.0159 -5.23148,0.0335 -7.83329,0.0526 -2e-5,0 -4e-5,0 -6e-5,0 22.33044,52.72488 40.46911,107.15335 54.15094,162.54034 5.95202,23.63454 11.07502,47.55226 12.43398,71.82077 0,10e-6 0,2e-5 0,2e-5 1.35544,24.26444 -1.12856,49.01773 -9.99326,71.64869 -11.40798,29.14451 -33.53048,54.07723 -61.2466,68.89944 27.88479,-14.5024 50.41004,-39.2413 62.25438,-68.4982 9.19005,-22.71602 12.01017,-47.66408 10.91001,-72.14687 0,-2e-5 0,-3e-5 0,-5e-5 -1.09677,-24.48095 -5.9651,-48.62056 -11.66937,-72.3851 -13.47648,-55.04944 -31.7266,-108.78633 -54.51118,-160.45692 1.31626,-0.24165 2.62324,-0.48494 3.92093,-0.72987 -26.92562,27.39841 -50.71257,57.72944 -70.73061,90.18004 -1e-5,1e-5 -2e-5,3e-5 -3e-5,4e-5 -19.46115,33.00491 -35.27547,68.85843 -41.5143,107.06369 -6.25567,38.2318 -2.13384,79.03444 16.39995,113.6296 17.68054,32.82554 48.17985,58.50387 83.71146,70.33255 z"
       id="path2856"
       inkscape:original-d="m 398.41541,603.2532 c -36.13176,-9.83152 -60.55208,-37.61845 -81.42049,-67.67488 -53.24745,-76.69139 -28.29149,-147.24699 23.92021,-217.05888 23.0373,-30.80297 44.13688,-63.8252 68.87434,-92.09133 l -5.87714,0.39126 c -60.2994,45.0868 46.59885,115.64406 54.33106,161.49863 7.80107,46.26306 54.67605,131.77534 1.60004,144.00075 -18.02537,4.15192 -43.8084,66.11092 -61.75049,68.69882"
       inkscape:path-effect="#path-effect2858;#path-effect2860"
       style="fill:#5aa02c;fill-rule:evenodd;stroke:none;stroke-opacity:1" />
    <path
       style="fill:none;stroke:none"
       d="m 243.93908,684.69988 0,298.84375 c 0.14193,-3.67876 2.29384,-16.54454 5.5,-43.5 19.16933,-161.16402 34.46843,31.30894 118.03125,-106.59375 47.41954,-78.25587 -15.79181,-147.81096 -13.1875,-148.75 l -110.34375,0 z m 110.4375,0 c 1.35043,0.17257 10.39828,8.196 33.84375,26.375 122.65586,95.10417 -43.63863,16.33966 26.5,158.96875 39.38272,80.08599 127.91893,57.31189 129.21875,59.5625 l 0,-244.90625 -189.5625,0 z m 0.3125,210.78125 c -82.01827,1.25002 -108.09083,89.1194 -110.5625,89.21875 l 299.8125,0 0,-55 c -0.20058,0.98217 -11.32442,5.19692 -39.28125,18.21875 -141.82519,66.05987 9.13895,-47.6486 -144.5625,-52.375 -1.83624,-0.0565 -3.62324,-0.0897 -5.40625,-0.0625 z m -110.5625,89.21875 c -0.10746,0.004 -0.16653,-0.15825 -0.1875,-0.5 l 0,0.5 0.1875,0 z"
       id="rect3711" />
    <path
       transform="matrix(1.3777017,-0.12328059,0.08789116,1.4482591,230.99938,381.42834)"
       d="M 172.73609,405.86456 C 67.454571,442.51594 181.43797,373.69064 70.683955,360.99939 -13.99784,351.29574 -27.151689,468.48928 -11.171891,384.76465 9.7278425,275.2625 12.340593,408.38767 78.708551,318.8175 129.45306,250.33274 34.537397,180.3444 99.055152,236.04563 c 84.381778,72.85077 -32.214373,8.5509 12.171688,110.81232 33.93729,78.18841 142.0068,30.98321 61.50925,59.00661 z"
       inkscape:randomized="0"
       inkscape:rounded="1"
       inkscape:flatsided="false"
       sodipodi:arg2="2.2823867"
       sodipodi:arg1="0.63783009"
       sodipodi:r2="24.790495"
       sodipodi:r1="106.87586"
       sodipodi:cy="342.22495"
       sodipodi:cx="86.873116"
       sodipodi:sides="3"
       id="path3709"
       style="fill:#9a9a9a;stroke:none;stroke-opacity:0.77165353000000003;fill-opacity:0.32283464"
       sodipodi:type="star" />
    <path
       style="fill:#ffe680;stroke:none"
       d="m 245.28678,823.17447 -0.0925,-137.13699 54.23736,0.26132 54.23736,0.26131 4.91414,8.08122 c 17.33207,28.50232 25.00204,52.37007 25.00204,77.80248 0,29.38841 -11.16787,56.32521 -36.15609,87.20824 -13.63739,16.85449 -26.81891,25.53267 -38.85112,25.57802 -7.57111,0.0285 -13.1818,-2.02679 -24.7996,-9.08467 -9.88039,-6.00239 -13.11289,-6.92927 -17.05549,-4.89047 -7.54121,3.89971 -11.60746,18.54427 -17.99613,64.81286 l -3.34752,24.24366 -0.0925,-137.13698 z"
       id="path3727" />
    <path
       style="fill:#cdde87;fill-opacity:1;stroke:none"
       d="m 500.76289,928.80512 c -6.15159,-0.64961 -22.53161,-4.533 -27.77116,-6.58401 -26.55929,-10.39654 -43.93793,-26.70931 -57.44171,-53.91869 -11.53122,-23.23479 -16.969,-41.33051 -17.12509,-56.98847 -0.0953,-9.56435 0.16802,-11.20218 2.68006,-16.66752 3.51193,-7.64074 9.18772,-13.50022 18.8457,-19.45562 16.36636,-10.09199 18.22822,-12.95861 14.25315,-21.94492 -3.95502,-8.94098 -26.89833,-29.51724 -69.6634,-62.47625 l -7.42799,-5.72476 93.03842,0 93.03843,0 0,121.57732 0,121.5773 -6.81853,0.64397 c -6.9677,0.65806 -29.24034,0.63406 -35.60788,-0.0384 l 0,3e-5 z"
       id="path3729" />
    <path
       style="fill:#87cdde;fill-opacity:1;stroke:none"
       d="m 250.98014,974.20105 c 18.45656,-39.11268 46.18636,-65.25542 78.56189,-74.06556 11.59244,-3.15457 36.45725,-3.83539 53.32291,-1.46003 29.46817,4.1503 45.25253,13.27168 50.72228,29.31111 1.25704,3.6861 1.78871,9.0913 1.96779,20.00524 0.21601,13.16497 0.48792,15.27935 2.27232,17.66935 6.08383,8.14863 20.65411,4.38866 71.36927,-18.41738 14.36127,-6.4581 27.88469,-12.64666 30.05204,-13.75237 l 3.94066,-2.01037 0,26.2845 0,26.2845 -148.42835,0 -148.42836,0 4.64755,-9.84899 z"
       id="path3731" />
    <path
       sodipodi:type="star"
       style="fill:#f4cdcd;fill-opacity:1;stroke:none"
       id="path3758"
       sodipodi:sides="3"
       sodipodi:cx="-654.28571"
       sodipodi:cy="146.6479"
       sodipodi:r1="159.30974"
       sodipodi:r2="70.469224"
       sodipodi:arg1="0.56810473"
       sodipodi:arg2="1.1544303"
       inkscape:flatsided="false"
       inkscape:rounded="1"
       inkscape:randomized="0"
       d="m -519.99999,232.36219 c -11.47232,107.28986 2.00795,-16.43117 -105.78517,-21.26562 -169.94099,-7.62174 -32.43138,109.22632 -169.87415,8.98903 -87.17959,-63.58025 13.22583,9.95453 71.30915,-80.97983 91.57112,-143.3623459 -78.37708,-82.699563 77.15235,-151.609852 98.6519,-43.709614 -15.23379,6.4766498 34.47601,102.245456 78.36988,150.984086 110.80846,-26.526764 92.72181,142.620816 z" />
    <g
       id="g3955"
       transform="translate(-938.56422,-440.2553)">
      <path
         transform="matrix(1.1805555,0,0,1.1805555,-61.428563,-294.59316)"
         d="m 1028.5714,765.2193 c 0,85.20965 -69.07604,154.28572 -154.28569,154.28572 -85.20966,0 -154.28573,-69.07607 -154.28573,-154.28572 0,-85.20965 69.07607,-154.28572 154.28573,-154.28572 85.20965,0 154.28569,69.07607 154.28569,154.28572 z"
         sodipodi:ry="154.28572"
         sodipodi:rx="154.28572"
         sodipodi:cy="765.2193"
         sodipodi:cx="874.28571"
         id="path3764"
         style="fill:#9a9a9a;fill-opacity:1;stroke:none"
         sodipodi:type="arc" />
      <path
         transform="matrix(1.3842622,-0.12621584,0.08830969,1.4827415,823.79491,118.49362)"
         d="M 172.73609,405.86456 C 67.454571,442.51594 181.43797,373.69064 70.683955,360.99939 -13.99784,351.29574 -27.151689,468.48928 -11.171891,384.76465 9.7278425,275.2625 12.340593,408.38767 78.708551,318.8175 129.45306,250.33274 34.537397,180.3444 99.055152,236.04563 c 84.381778,72.85077 -32.214373,8.5509 12.171688,110.81232 33.93729,78.18841 142.0068,30.98321 61.50925,59.00661 z"
         inkscape:randomized="0"
         inkscape:rounded="1"
         inkscape:flatsided="false"
         sodipodi:arg2="2.2823867"
         sodipodi:arg1="0.63783009"
         sodipodi:r2="24.790495"
         sodipodi:r1="106.87586"
         sodipodi:cy="342.22495"
         sodipodi:cx="86.873116"
         sodipodi:sides="3"
         id="path3760"
         style="fill:#f4cdcd;fill-opacity:1;stroke:none"
         sodipodi:type="star" />
    </g>
    <path
       style="fill:#9a9a9a;fill-opacity:1;stroke:none;filter:url(#filter3840)"
       d="M 975.71875 810.21875 C 875.12403 810.21875 793.5625 891.78028 793.5625 992.375 C 793.5625 1040.132 811.95958 1083.5788 842.03125 1116.0625 C 842.65233 1110.3338 844.58477 1097.3366 847.3125 1073.9688 C 866.57311 908.96748 881.94551 1106.0298 965.90625 964.84375 C 1030.1021 856.89379 892.52155 765.11514 986.75 839.5625 C 1109.9899 936.93105 942.93363 856.28747 1013.4062 1002.3125 C 1067.2892 1113.9623 1212.705 1030.351 1103.75 1082.0625 C 961.24945 1149.6952 1112.9646 1033.2452 958.53125 1028.4062 C 879.55646 1025.9317 849.89633 1103.4777 843.3125 1117.4375 C 876.5179 1152.5776 923.55591 1174.5 975.71875 1174.5 C 1076.3135 1174.5 1157.8438 1092.9697 1157.8438 992.375 C 1157.8438 891.78028 1076.3135 810.21875 975.71875 810.21875 z "
       id="path3764-4" />
    <path
       style="fill:#fef176;fill-opacity:1;stroke:none;filter:url(#filter3826)"
       d="M 835.21735,1106.7785 C 793.44097,1055.065 783.0258,985.78385 807.794,924.35975 827.01749,876.6863 867.61983,838.0998 916.32104,821.2209 c 10.96846,-3.80146 34.70831,-9.32645 35.51767,-8.26605 0.21191,0.27766 2.67178,4.36199 5.46637,9.07627 12.99157,21.91602 20.7799,41.7335 24.09999,61.32265 2.24968,13.27365 0.8587,37.35114 -2.92118,50.56449 -6.16748,21.55978 -22.86094,48.95599 -40.68754,66.77374 -20.78335,20.773 -31.73509,22.6005 -54.99461,9.1766 -16.01617,-9.2435 -18.74201,-9.0296 -23.69454,1.8585 -4.53681,9.9743 -8.32055,29.6139 -12.9942,67.4469 -2.13537,17.2857 -4.33789,31.9577 -4.89449,32.6045 -0.5566,0.6467 -3.25712,-1.6033 -6.00116,-5 l 0,0 z"
       id="path3792" />
    <path
       style="fill:#94bd5e;fill-opacity:1;stroke:none;filter:url(#filter3812)"
       d="m 1102.7012,1063.2485 c -35.3368,-5.3072 -56.0038,-16.1373 -74.2831,-38.9266 -13.6614,-17.032 -28.408,-51.33346 -31.43974,-73.13066 -3.11166,-22.37201 3.74264,-36.50751 23.08014,-47.59748 8.8773,-5.09113 14.0712,-10.49606 14.0712,-14.64297 0,-4.80741 -5.6685,-13.20739 -15.3043,-22.67883 -7.3739,-7.24813 -43.87449,-37.74018 -57.90995,-48.37712 -2.94643,-2.23298 -5.35714,-4.70875 -5.35714,-5.5017 0,-0.94271 8.28239,-1.17945 23.92857,-0.68396 19.16549,0.60693 26.77222,1.4819 38.21432,4.39566 35.4973,9.0395 64.3429,25.66382 88.6078,51.06656 47.1743,49.38658 62.6791,118.91219 40.9065,183.4312 l -3.8567,11.4285 -8.5431,0.9164 c -9.2912,0.9966 -26.4142,1.1571 -32.1145,0.301 z"
       id="path3794" />
    <path
       style="fill:#99ccff;fill-opacity:1;stroke:none;filter:url(#filter3798)"
       d="m 958.25482,1172.7965 c -40.77434,-4.1447 -76.44846,-20.4993 -106.63934,-48.8883 l -7.51426,-7.0658 7.38151,-14.3703 c 18.8028,-36.6052 43.85995,-59.8904 74.48085,-69.2138 16.05679,-4.8889 49.03547,-4.6957 69.583,0.4076 19.73992,4.9028 33.79242,15.425 37.29692,27.9271 0.9485,3.3838 1.8729,12.3223 2.0543,19.8632 0.1814,7.541 0.7806,15.1314 1.3317,16.8676 1.4189,4.4705 5.9672,5.7208 15.4194,4.2385 11.0528,-1.7332 19.2884,-4.9024 55.684,-21.4281 17.0831,-7.7567 31.3867,-14.1031 31.7857,-14.1031 1.9617,0 0.125,4.6606 -5.923,15.0299 -26.6825,45.7468 -70.8481,77.5994 -121.5892,87.6911 -16.66421,3.3143 -38.46072,4.558 -53.35158,3.0444 l 0,0 z"
       id="path3796" />
    <g
       id="g4080"
       transform="translate(387.89858,1169.7566)">
      <path
         id="path3764-4-3"
         d="m 1074.8179,-368.22546 c -100.59472,0 -182.15624,81.56153 -182.15624,182.15625 0,47.757 18.39707,91.203797 48.46875,123.687497 0.62108,-5.7287 2.55352,-18.7259 5.28125,-42.093697 19.26061,-165.00132 34.63301,32.060997 118.59374,-109.12505 64.1959,-107.94996 -73.38469,-199.72861 20.8438,-125.28125 123.2399,97.36855 -43.8164,16.72497 26.6562,162.75 53.883,111.649797 199.2988,28.0385 90.3438,79.749997 -142.5006,67.6327 9.2146,-48.817297 -145.2188,-53.656297 -78.97478,-2.4745 -108.63491,75.071497 -115.21874,89.031297 33.2054,35.1401 80.24344,57.0624997 132.40624,57.0624997 100.5948,0 182.1251,-81.5302997 182.1251,-182.1249967 0,-100.59472 -81.5303,-182.15625 -182.1251,-182.15625 z"
         style="fill:#9a9a9a;fill-opacity:1;stroke:none;filter:url(#filter3840-6)" />
      <path
         id="path3792-1"
         d="m 934.31651,-71.665713 c -41.77638,-51.713497 -52.19155,-120.994647 -27.42335,-182.418747 19.22348,-47.67345 59.82582,-86.25995 108.52704,-103.13885 10.9685,-3.80146 34.7083,-9.32645 35.5177,-8.26605 0.2119,0.27766 2.6718,4.36199 5.4663,9.07627 12.9916,21.91602 20.7799,41.7335 24.1,61.32265 2.2497,13.27365 0.8587,37.35114 -2.9212,50.56449 -6.1674,21.55978 -22.8609,48.95599 -40.6875,66.77374 -20.7833,20.773 -31.7351,22.6005 -54.9946,9.1766 -16.01617,-9.2435 -18.74202,-9.0296 -23.69454,1.8585 -4.53681,9.9743 -8.32055,29.6139 -12.9942,67.446897 -2.13537,17.2857 -4.33789,31.9577 -4.89449,32.6045 -0.5566,0.6467 -3.25712,-1.6033 -6.00116,-5 l 0,0 z"
         style="fill:#ffe680;fill-opacity:1;stroke:none;filter:url(#filter3826-2)" />
      <path
         id="path3794-1"
         d="m 1201.8004,-115.19571 c -35.3368,-5.3072 -56.0038,-16.1373 -74.2831,-38.9266 -13.6614,-17.032 -28.408,-51.33346 -31.4398,-73.13066 -3.1116,-22.37201 3.7427,-36.50751 23.0802,-47.59748 8.8773,-5.09113 14.0712,-10.49606 14.0712,-14.64297 0,-4.80741 -5.6685,-13.20739 -15.3043,-22.67883 -7.3739,-7.24813 -43.8745,-37.74018 -57.91,-48.37712 -2.9464,-2.23298 -5.3571,-4.70875 -5.3571,-5.5017 0,-0.94271 8.2824,-1.17945 23.9285,-0.68396 19.1655,0.60693 26.7723,1.4819 38.2144,4.39566 35.4973,9.0395 64.3429,25.66382 88.6078,51.06656 47.1743,49.38658 62.6791,118.91219 40.9065,183.4312 l -3.8567,11.4285 -8.5431,0.9164 c -9.2912,0.9966 -26.4142,1.1571 -32.1145,0.301 z"
         style="fill:#cdde87;fill-opacity:1;stroke:none;filter:url(#filter3812-6)" />
      <path
         id="path3796-0"
         d="m 1057.354,-5.6477133 c -40.7744,-4.1447 -76.44848,-20.4992997 -106.63937,-48.8882997 l -7.51426,-7.0658 7.38151,-14.3703 c 18.80281,-36.605197 43.85995,-59.890397 74.48082,-69.213797 16.0568,-4.8889 49.0355,-4.6957 69.583,0.4076 19.74,4.9028 33.7925,15.425 37.297,27.9271 0.9485,3.3838 1.8729,12.3223 2.0543,19.863197 0.1814,7.541 0.7806,15.1314 1.3317,16.8676 1.4189,4.4705 5.9672,5.7208 15.4194,4.2385 11.0528,-1.7332 19.2884,-4.9024 55.684,-21.4281 17.0831,-7.756697 31.3867,-14.103097 31.7857,-14.103097 1.9617,0 0.125,4.6606 -5.923,15.029897 -26.6825,45.7468 -70.8481,77.5994 -121.5892,87.6910997 -16.6643,3.3143 -38.4608,4.558 -53.3516,3.0444 l 0,0 z"
         style="fill:#87cdde;fill-opacity:1;stroke:none;filter:url(#filter3798-5)" />
    </g>
  </g>
</svg>
